<?xml version="1.0" encoding="utf-8"?>
<!-- Generator: Adobe Illustrator 16.0.4, SVG Export Plug-In . SVG Version: 6.00 Build 0)  -->
<!DOCTYPE svg PUBLIC "-//W3C//DTD SVG 1.1//EN" "http://www.w3.org/Graphics/SVG/1.1/DTD/svg11.dtd">
<svg version="1.1" xmlns="http://www.w3.org/2000/svg" xmlns:xlink="http://www.w3.org/1999/xlink" x="0px" y="0px" width="700px"
	 height="700px" viewBox="0 0 700 700" enable-background="new 0 0 700 700" xml:space="preserve">
<g id="circle">
	<circle fill="#FFFFFF" stroke="#000000" stroke-miterlimit="10" cx="350" cy="350" r="350"/>
</g>
<g id="level2-disk0">
	<circle fill="none" stroke="#000000" stroke-miterlimit="10" cx="350" cy="350" r="350"/>
	<path opacity="0.3" d="M332.462,269.812c-2.123-4.085-4.854-7.859-8.069-11.182c-9.143,32.245-33.643,56.495-55.667,71.384
		c4.449,1.975,9.13,3.229,13.998,3.939C297.625,300.5,317.285,284.408,332.462,269.812z"/>
	<path opacity="0.3" d="M271.481,361.209c-11.252,5.43-19.519,16.87-20.658,29.356c-0.04,0.026-0.08,0.051-0.12,0.077
		c-7.996-8.588-20.139-13.265-32.495-13.265c-19.995,0-36.711,18.977-34.89,38.569c1.562,16.802,13.863,28.021,28.764,32.117
		c-6.059,4.861-10.604,11.627-12.668,19.097c-3.042-1.18-6.36-1.798-9.708-1.798c-6.034,0-11.529,3.098-15.149,7.669
		c-2.498-0.612-5.092-0.932-7.702-0.932c-13.243,0-24.315,12.569-23.109,25.546c0.435,4.679,2.133,8.699,4.682,11.996
		c-9.407,3.736-16.136,13.738-15.182,24.002c1.149,12.366,11.083,20.163,22.401,21.997c-0.423,1.348-0.61,2.769-0.477,4.205
		c0.63,6.779,6.648,10.749,12.978,10.968c-0.599,1.319-0.953,2.745-1.008,4.203c-0.971-0.104-1.951-0.16-2.934-0.16
		c-11.166,0-20.501,10.598-19.484,21.539c0.782,8.408,6.38,14.309,13.523,17.09c-0.741-0.105-1.492-0.165-2.246-0.165
		c-6.492,0-11.919,6.161-11.328,12.522c0.649,6.977,7.001,10.989,13.528,10.989c0.979,0,1.929-0.155,2.843-0.415
		c3.422,8.567,12.578,13.379,21.948,13.379c11.166,0,20.501-10.598,19.484-21.539c-0.51-5.489-3.081-9.904-6.786-13.086
		c1.446,0.432,2.971,0.662,4.509,0.662c6.492,0,11.919-6.161,11.328-12.522c-0.649-6.977-7.001-10.989-13.528-10.989
		c-6.492,0-11.919,6.161-11.328,12.522c0.245,2.635,1.305,4.845,2.879,6.578c-2.52-1.057-5.241-1.73-8.03-1.967
		c4.079-4.087,6.501-9.841,5.957-15.696c-0.257-2.77-1.043-5.264-2.229-7.469c4.261-2.02,7.225-6.691,6.78-11.479
		c-0.631-6.779-6.648-10.749-12.978-10.968c0.78-1.718,1.156-3.614,0.978-5.531c-0.151-1.624-0.622-3.079-1.321-4.369
		c1.137,0.257,2.311,0.393,3.492,0.393c6.492,0,11.919-6.161,11.328-12.522c-0.514-5.521-4.603-9.177-9.521-10.465
		c-0.015-0.277-0.027-0.555-0.053-0.832c-0.435-4.679-2.133-8.699-4.682-11.996c1.193-0.474,2.342-1.05,3.438-1.713
		c2.469,10.198,12.496,15.994,22.781,15.994c11.166,0,20.501-10.598,19.484-21.539c-0.028-0.299-0.076-0.587-0.115-0.879
		c4.813,1.583,9.95,2.408,15.125,2.408c13.694,0,25.846-8.902,31.56-20.807C262.875,465.375,253.5,421.125,271.481,361.209z
		 M164.831,616.104c-0.74-0.543-1.544-1.005-2.392-1.393c1.066,0.222,2.147,0.394,3.241,0.486
		C165.387,615.491,165.105,615.795,164.831,616.104z"/>
	<path fill="none" stroke="#020200" stroke-miterlimit="10" d="M339.783,593.807c1.27-0.597,2.443-1.383,3.5-2.307
		c-13.616-8.501-31.53-29.031-39.889-39.308c-1.632-0.217-3.284-0.328-4.942-0.328c-15.58,0-28.606,14.787-27.187,30.054
		c1.557,16.745,16.802,26.376,32.467,26.376c6.893,0,13.284-2.897,18.147-7.448c-0.002,0.296,0.003,0.593,0.031,0.891
		c0.558,5.996,6.017,9.444,11.626,9.444c5.578,0,10.242-5.294,9.734-10.761C343.012,597.631,341.686,595.402,339.783,593.807z"/>
	<path fill="none" stroke="#020200" stroke-miterlimit="10" d="M370.85,196.296c0.011,0.379,0.031,0.758,0.066,1.139
		c0.767,8.243,6.1,14.109,12.998,17.038c-0.127,1.005-0.154,2.027-0.059,3.054c0.681,7.318,6.052,12.187,12.547,13.959
		c12.098-4.485,17.008-5.093,27.416-7.657c-1.364-2.929-3.754-5.15-6.634-6.564c0.021-0.594,0.016-1.192-0.04-1.792
		c-0.05-0.535-0.131-1.054-0.229-1.562c0.122,0.004,0.233,0.026,0.358,0.026c10.106,0,8.387-14.681-1.373-14.681
		c-0.656,0-1.261,0.064-1.818,0.181c0.252-1.532,0.324-3.1,0.178-4.676c-0.986-10.614-9.544-17.293-19.269-18.825
		c0.674-1.354,1.007-2.872,0.864-4.409c-0.483-5.203-5.22-8.195-10.087-8.195c-3.089,0-5.848,1.874-7.331,4.459
		c-1.74-2.707-4.105-4.928-6.86-6.61c1.938-3.451,2.926-7.422,2.552-11.441c-1.15-12.373-12.415-19.489-23.99-19.489
		c-8.795,0-16.482,6.379-19.156,14.419c-3.541-1.274-7.364-1.937-11.217-1.937c-2.113,0-4.171,0.314-6.137,0.889
		c10.537,16.209,14.666,37.244,17.406,52.849c3.291-1.03,5.766-4.288,5.76-7.757c1.014-0.653,1.975-1.385,2.887-2.175
		c3.912,7.879,12.782,12.274,21.847,12.274C364.869,198.816,368.047,197.886,370.85,196.296z"/>
	<path fill="none" stroke="#000000" stroke-miterlimit="10" d="M676,426.5C676,541.1,583.1,634,468.5,634
		c-47.166,0-90.656-15.737-125.507-42.246c-14.911-11.342-28.24-24.656-39.6-39.554c-13.718-17.99-24.562-38.29-31.849-60.214
		c-0.088-0.265-0.175-0.529-0.262-0.795c-0.065-0.199-0.13-0.399-0.195-0.599C264.539,470.408,261,448.867,261,426.5
		c0-22.812,3.681-44.763,10.48-65.292c3.112-9.395,6.877-18.492,11.241-27.238c12.251-24.551,29.227-46.332,49.734-64.153
		c18.704-16.254,40.348-29.214,64.026-37.978c8.845-3.273,17.974-5.961,27.34-8.017c14.391-3.158,29.34-4.822,44.678-4.822
		C583.1,219,676,311.9,676,426.5z"/>
	<path fill="none" stroke="#000000" stroke-miterlimit="10" d="M332,213c0,15.977-2.676,31.327-7.604,45.63
		c-10.172,29.521-29.939,54.573-55.576,71.431C246.766,344.562,220.368,353,192,353c-77.32,0-140-62.68-140-140
		c0-77.32,62.68-140,140-140c52.074,0,97.509,28.432,121.626,70.618c9.102,15.92,15.167,33.8,17.407,52.85
		C331.672,201.889,332,207.406,332,213z"/>
</g>
<g id="level2-disk1">
	<circle fill="none" stroke="#000000" stroke-miterlimit="10" cx="468.59" cy="426.499" r="207.5"/>
	<path opacity="0.3" d="M642.094,537.313c-0.648-6.977-7.001-10.989-13.527-10.989c-1.571,0-3.077,0.367-4.454,1.005
		c-0.007-0.172-0.002-0.343-0.018-0.515c-0.276-2.97-1.592-5.396-3.509-7.212c0.881,0.151,1.778,0.235,2.681,0.235
		c6.492,0,11.92-6.161,11.328-12.522c-0.648-6.977-7.001-10.989-13.527-10.989c-6.492,0-11.92,6.161-11.328,12.522
		c0.276,2.97,1.592,5.396,3.509,7.212c-0.557-0.096-1.121-0.153-1.688-0.19c-0.914-3.79-2.871-6.972-5.499-9.476
		c3.853-2.188,6.454-6.578,6.035-11.079c-0.548-5.896-5.172-9.663-10.528-10.692c-0.749-6.854-7.034-10.796-13.499-10.796
		c-6.31,0-11.597,5.82-11.347,11.987c-1.014-0.484-2.091-0.856-3.208-1.105c0.896-2.521,1.285-5.222,1.032-7.944
		c-0.113-1.218-0.337-2.378-0.642-3.488c0.453,0.039,0.907,0.063,1.364,0.063c6.492,0,11.92-6.161,11.328-12.522
		c-0.438-4.718-3.489-8.074-7.436-9.757c2.15-3.503,3.272-7.622,2.885-11.794c-1.115-12-12.041-18.902-23.268-18.902
		c-7.037,0-13.345,4.211-16.795,10.063c-1.503-0.213-3.027-0.326-4.557-0.326c-2.641,0-5.192,0.503-7.58,1.406
		c2.477-5.354,3.662-11.288,3.104-17.282c-1.998-21.489-21.562-33.849-41.666-33.849c-19.139,0-35.262,17.387-35.012,36.057
		c-2.23-1.064-4.569-1.941-6.977-2.64c3.929-7.348,5.889-15.718,5.102-24.18c-0.924-9.942-5.338-19.25-12.028-26.548
		c1.18-0.911,2.304-1.894,3.394-2.912c0.011,0.2,0.002,0.399,0.021,0.6c0.985,10.605,10.642,16.704,20.562,16.704
		c9.868,0,18.117-9.365,17.219-19.034c-0.502-5.402-3.261-9.628-7.151-12.48c0.145,0.002,0.287,0.017,0.432,0.017
		c9.868,0,18.117-9.365,17.219-19.034c-0.986-10.605-10.642-16.704-20.562-16.704c-5.718,0-10.877,3.153-14.044,7.678
		c-2.283-9.858-7.949-18.78-15.74-25.28c-10.389-8.667-22.559-11.642-35.809-11.642c-25.188,0-46.247,23.906-43.952,48.587
		c0.004,0.047,0.013,0.094,0.017,0.142c-0.412-0.369-0.827-0.734-1.252-1.088c-10.117-8.44-21.925-11.474-34.772-11.627
		c6.741-8.707,10.493-19.705,9.455-30.871c-0.534-5.736-2.227-11.262-4.848-16.313c-25.134,21.192-42.467,51.525-49.747,64.165
		c3.127,0.455,6.333,0.681,9.605,0.72c-5.211,6.731-8.624,14.833-9.431,23.321c-4.015,0.358-7.862,1.472-11.412,3.185
		c-5.817,17.468-8.683,36.051-10.484,53.802c0,9.889-2.333,33.018,10.549,76.994c2.632-5.479,3.9-11.594,3.326-17.771
		c-0.632-6.796-3.022-12.678-6.629-17.546c2.545,0.407,5.136,0.618,7.737,0.618c12.911,0,24.447-7.917,30.516-18.799
		c2.775,20.529,21.867,32.298,41.48,32.298c19.995,0,36.712-18.977,34.891-38.569c-0.003-0.03-0.008-0.061-0.011-0.091
		c6.008,3.167,12.474,4.905,19.287,5.639c-1.237,4.063-1.739,8.353-1.338,12.673c1.998,21.489,21.562,33.849,41.666,33.849
		c7.294,0,14.146-2.53,19.825-6.69c3.309,6.957,11.041,10.85,18.957,10.85c4.168,0,8.038-1.684,11.061-4.343
		c5.005,7.703,14.414,11.955,24.01,11.955c7.059,0,13.483-3.583,17.777-8.883c4.021,7.149,12.355,11.121,20.868,11.121
		c1.308,0,2.588-0.15,3.831-0.425c1.15,6.337,7.18,9.959,13.376,9.959c0.396,0,0.786-0.024,1.172-0.069
		c-2.961,3.852-4.606,8.705-4.148,13.631c1.115,12,12.041,18.902,23.268,18.902c4.141,0,8.027-1.459,11.229-3.851
		c2.486,1.88,5.71,2.886,8.978,2.886c1.571,0,3.077-0.367,4.454-1.005c0.007,0.172,0.002,0.343,0.018,0.515
		c0.648,6.977,7.001,10.989,13.527,10.989C637.258,549.836,642.686,543.675,642.094,537.313z M459.272,337.495
		c1.142,1.64,2.552,3.06,4.162,4.241c-0.144-0.002-0.287-0.017-0.432-0.017c-1.862,0-3.667,0.335-5.363,0.941
		C458.291,340.975,458.83,339.248,459.272,337.495z M358.093,401.37c0.239-0.154,0.481-0.306,0.719-0.464
		c0.062,0.274,0.135,0.546,0.201,0.818C358.707,401.604,358.4,401.484,358.093,401.37z M493.11,458.336
		c-3.924-3.646-9.471-5.621-15.108-5.621c-0.234,0-0.462,0.03-0.694,0.041c0.189-1.493,0.288-3.001,0.268-4.519
		c6.25,2.984,13.331,4.558,20.485,4.558c0.131,0,0.26-0.01,0.391-0.012C496.399,454.342,494.595,456.228,493.11,458.336z
		 M582.563,500.98c0.747-1.595,1.125-3.351,1.052-5.136c1.147,0.547,2.378,0.952,3.653,1.197c0.111,1.016,0.356,1.958,0.692,2.843
		C586.09,499.971,584.277,500.352,582.563,500.98z"/>
	<path opacity="0.3" d="M514.638,448.225c0.12-0.069,0.241-0.138,0.36-0.208c-0.021,0.077-0.05,0.151-0.069,0.229
		C514.832,448.236,514.734,448.232,514.638,448.225z"/>
	<path fill="none" stroke="#020200" stroke-miterlimit="10" d="M423.913,223.822c-16.354,3.826-19.551,5.309-27.421,7.663
		c0.024,0.119,0.05,0.236,0.077,0.354c1.619,6.941,8.416,10.887,15.384,10.887c7.527,0,13.819-7.143,13.134-14.519
		C424.938,226.607,424.53,225.143,423.913,223.822z"/>
	<path fill="none" stroke="#020200" stroke-miterlimit="10" d="M399.456,581.891c4.943-1.269,4.945-7.83,1.169-10.68
		c2.91-2.364,4.734-6.087,4.381-9.892c-0.644-6.922-6.944-10.902-13.419-10.902c-0.498,0-0.986,0.049-1.469,0.119
		c-0.376-1.505-1.253-2.926-2.585-3.894c0.261-1.062,0.354-2.167,0.251-3.278c-0.606-6.515-6.538-10.262-12.633-10.262
		c-5.892,0-10.83,5.437-10.596,11.196c-1.972-0.679-4.083-1.041-6.216-1.041c-7.908,0-14.521,7.506-13.8,15.255
		c0.138,1.485,0.499,2.854,1.026,4.111c-0.106-0.003-0.212-0.013-0.318-0.013c-2.879,0-5.502,1.436-7.285,3.57
		c-2.117-0.749-4.393-1.151-6.689-1.151c-1.579,0-3.107,0.287-4.544,0.805c-5.035-7.682-13.805-12.425-23.258-13.652
		c14.118,19.334,38.777,40.257,39.525,39.644c2.869-2.353,4.904-5.737,5.479-9.401c4.423-0.701,7.97-4.705,8.249-9.13
		c0.291,0.532,0.833,0.948,1.61,0.948c0.842,0,1.319-0.45,1.479-1.019c1.303,1.973,3.515,3.426,6.526,3.426
		c6.392,0,7.872-6.096,5.475-10.283c2.134-2.739,3.33-6.201,3.003-9.722c-0.06-0.638-0.17-1.247-0.304-1.844
		c0.883,0.163,1.783,0.256,2.69,0.256c0.664,0,1.312-0.08,1.947-0.211c0.599,0.843,1.4,1.559,2.387,2.052
		c-0.922,1.82-1.383,3.867-1.19,5.94c0.555,5.967,5.314,9.74,10.765,10.67c-0.695,2.272,0.023,5.091,1.951,6.87
		c-5.565,0.1-10.187,5.393-9.678,10.863c0.563,6.058,6.078,9.542,11.745,9.542c5.636,0,10.349-5.35,9.835-10.872
		C404.622,586.2,402.415,583.461,399.456,581.891z"/>
	<path fill="none" stroke="#020200" stroke-miterlimit="10" d="M356.676,571.645c-0.011-0.087-0.025-0.171-0.037-0.257
		c0.053,0.013,0.105,0.029,0.159,0.041C356.745,571.493,356.715,571.571,356.676,571.645z"/>
</g>
<g id="level2-disk2">
	<circle fill="none" stroke="#000000" stroke-miterlimit="10" cx="192.006" cy="212.999" r="140"/>
	<path opacity="0.3" d="M256.848,322.441c0.238,0.207,0.469,0.421,0.711,0.623c3.552,2.963,7.312,5.26,11.253,6.999
		c35.527-20.23,56.214-70.804,55.595-71.444c-1.191-1.23-2.448-2.399-3.766-3.499c-10.39-8.667-22.56-11.642-35.809-11.642
		c-3.314,0-6.555,0.423-9.682,1.199c2.219-5.131,3.258-10.759,2.73-16.442c-1.998-21.489-21.563-33.849-41.667-33.849
		c-14.997,0-28.149,10.675-33.019,24.279c-0.527-0.588-1.075-1.157-1.639-1.709c4.433-4.793,7.018-11.303,6.402-17.922
		c-0.295-3.173-1.171-6.044-2.498-8.592c4.354-3.629,7.07-9.257,6.535-15.008c-0.821-8.836-7.666-14.53-15.664-16.188
		c1.325-2.941,1.955-6.186,1.65-9.464c-1.116-12.001-12.042-18.903-23.269-18.903c-10.896,0-20.042,10.09-19.535,20.744
		c-1.751,0.409-3.368,1.25-4.736,2.399c-0.72-2.048-1.75-3.9-3.041-5.53c7.287-3.494,12.345-11.505,11.583-19.709
		c-1.116-12.001-12.042-18.903-23.269-18.903c-5.724,0-10.962,2.789-14.576,6.977c-1.044-0.836-2.333-1.44-3.856-1.668
		c2.728-4.379-0.208-12.11-7.378-12.11c-5.283,0-7.406,3.914-6.898,7.749c-0.655-0.156-1.352-0.25-2.101-0.25
		c-10.359,0-8.595,15.048,1.408,15.048c0.328,0,0.628-0.033,0.932-0.062c-1.337,4.435,1.683,10.562,8.067,10.562
		c2.433,0,4.19-0.834,5.335-2.104c0.66,2.931,1.957,5.491,3.687,7.677c-7.298,3.489-12.367,11.508-11.604,19.72
		c1.116,12.001,12.042,18.903,23.269,18.903c0.496,0,0.986-0.026,1.473-0.067c-3.387,4.525-5.253,10.176-4.72,15.908
		c0.931,10.021,7.633,17.038,16.163,20.318c-6.646,7.229-10.514,17.021-9.589,26.977c1.904,20.488,19.779,32.668,38.862,33.759
		c-2.006,5.669-2.875,11.735-2.307,17.851c1.125,12.098,7.406,23.261,16.68,30.998c10.389,8.668,22.559,11.643,35.809,11.643
		C237.069,337.706,248.711,331.628,256.848,322.441z M109.26,119.516c0.037-0.541,0.024-1.09-0.048-1.64
		c0.234,0.056,0.481,0.093,0.727,0.131C109.646,118.475,109.425,118.984,109.26,119.516z M148.381,170.91
		c0.155-0.242,0.312-0.482,0.456-0.729c0.175,0.205,0.374,0.387,0.563,0.58C149.058,170.8,148.719,170.853,148.381,170.91z
		 M174.206,177.537c-0.67,0.203-1.331,0.436-1.977,0.7c-2.107-1.978-4.573-3.585-7.255-4.812c1.634-0.923,3.039-2.24,4.089-3.798
		c1.902,0.712,3.908,1.205,5.958,1.467C174.337,173.152,174.034,175.333,174.206,177.537z"/>
	<path opacity="0.3" d="M514.555,448.225c0.119-0.069,0.24-0.138,0.359-0.208c-0.021,0.077-0.049,0.151-0.068,0.229
		C514.748,448.236,514.65,448.232,514.555,448.225z"/>
	<path fill="none" stroke="#020200" stroke-miterlimit="10" d="M313.633,143.616c-6.218,1.806-11.52,6.236-14.707,11.836
		c-0.842-0.087-1.688-0.146-2.539-0.146c-10.102,0-18.547,9.588-17.627,19.486c1.01,10.857,10.895,17.102,21.051,17.102
		c3.486,0,6.764-1.161,9.539-3.063c3.363,1.765,7.121,2.911,11.006,3.383c1.615,2.952,5.023,4.597,8.51,4.597
		c0.75,0,1.48-0.119,2.174-0.335C328.958,181.854,327.256,168.999,313.633,143.616z"/>
</g>
<g id="level1-disk0">
	<path fill="none" stroke="#000000" stroke-miterlimit="10" d="M489.907,349.97c0,25.924-7.05,50.201-19.337,71.02
		c-23.204,39.312-65.084,66.288-113.434,68.722c-2.368,0.119-4.753,0.18-7.151,0.18c-77.277,0-139.923-62.646-139.923-139.921
		c0-77.277,62.646-139.922,139.923-139.922S489.907,272.693,489.907,349.97z"/>
	<path opacity="0.3" fill="#050500" d="M315.943,303.683c-57.481,2.327-93.716,100.851,1.019,123.7
		c12.973,3.129,18.604-2.766,18.604-2.766c4.693-3.235,7.743-8.888,7.205-14.675c-0.801-8.616-7.85-13.978-15.775-15.083
		c1.187-0.798,2.215-1.835,2.983-3.042c1.163,0.271,2.368,0.41,3.579,0.41c1.301,0,2.557-0.253,3.729-0.703
		c-0.014,0.379-0.01,0.76,0.026,1.142c0.556,5.979,5.999,9.418,11.592,9.418c5.034,0,9.308-4.326,9.702-9.187
		c4.765-2.5,8.029-7.827,7.521-13.292c-0.766-8.233-8.262-12.969-15.965-12.969c-3.967,0-7.586,1.959-10.068,4.881
		c-2.447-1.771-5.564-2.725-8.729-2.725c-0.883,0-1.744,0.116-2.574,0.329c0.994-1.128,1.693-2.507,1.988-3.978
		c0.675,0.111,1.361,0.173,2.053,0.173c5.14,0,9.437-4.878,8.969-9.914c-0.514-5.524-5.543-8.701-10.711-8.701
		c-4.617,0-8.541,3.938-8.955,8.389c-0.32-0.027-0.643-0.044-0.966-0.044c-4.673,0-8.58,4.436-8.155,9.015
		c0.468,5.022,5.041,7.911,9.739,7.911c0.37,0,0.732-0.037,1.091-0.09c-1.387,1.295-2.48,2.909-3.131,4.688
		c-0.229-0.012-0.456-0.027-0.685-0.027c-3.867,0-7.28,2.584-8.8,5.988c-0.473-0.075-0.962-0.125-1.479-0.125
		c-8.793,0-8.939,10.728-2.77,14.16c-2.194,2.538-3.456,5.882-3.139,9.283c0.344,3.703,2.162,6.635,4.749,8.684
		c0.276,1.106-7.629-1.523-13.629-5.523c-21.954-11.759-25.111-39.77-22-53.633c3-13.367,20.186-37.277,47-37.465
		c57.5-0.402,62.96,74.598,60.8,102.098c-3.8,21.282-28.274,46.424-61.847,65.789c38.047,11.545,74.602-2.455,88.202-8.072
		c6.177-6.299,13.663-12.086,22.345-17.217c26.521-15.675,44.265-49.185,57.677-82.712c4.22-25.121,2.769-47.788-4.644-72.88
		c-7.523,40.749-23.516,90.698-66.533,115.239C413.462,321.01,340.499,302.688,315.943,303.683z"/>
</g>
<g id="level1-disk1">
	<path fill="none" stroke="#000000" stroke-miterlimit="10" d="M600.001,349.96c0,138.073-111.93,250.003-250,250.003
		c-138.072,0-250.002-111.93-250.002-250.003c0-138.069,111.93-249.999,250.002-249.999
		C488.071,99.961,600.001,211.891,600.001,349.96z"/>
	<g opacity="0.3">
		<path fill="#050500" d="M563.613,229.751c0.141,0.023,0.279,0.057,0.419,0.084c-0.033-0.214-0.069-0.427-0.094-0.646
			C563.832,229.378,563.729,229.568,563.613,229.751z"/>
		<path fill="#050500" d="M591.353,284.212c-0.148-0.494-0.279-0.989-0.425-1.483c-0.028-0.012-0.06-0.021-0.088-0.033
			c-4.749-2.058-8.407-6.127-8.937-11.823c-0.287-3.086,0.593-6.134,2.255-8.682c0.381-0.583-6.051-16.907-6.461-15.598
			c-1.535,4.909-6.188,8.834-11.526,8.834c-6.932,0-13.678-4.262-14.367-11.671c-0.237-2.554,0.441-5.077,1.747-7.229
			c-6.086-0.941-11.451-5.113-12.068-11.752c-0.643-6.92,5.262-13.623,12.324-13.623c1.553,0,3.095,0.216,4.566,0.624
			c0.33,0.092,0.657,0.193,0.98,0.304c-12.572-17.204-20.604-29.081-32.874-39.192c-2.826,3.814-4.376,8.562-3.929,13.376
			c0.739,7.95,5.777,13.654,12.353,16.623c-2.176,1.397-4.135,3.136-5.8,5.121c-4.218-5.033-10.991-7.795-17.9-7.795
			c-10.617,0-19.494,10.078-18.527,20.481c0.777,8.354,6.561,14.095,13.789,16.579c-2.072,1.59-3.865,3.545-5.291,5.734
			c-3.859-1.383-6.974-1.036-8.57,1.934c-3.587,6.674-4.605,31.063-9.955,60.299c3.057,10.407,9.852,24.508,4.938,72.468
			c18.418-46.339,28.646-92.367,42.417-91.041c7.672,0.739,8.461,11.026,9,10.64c13,7.6,9.793-7.951,20.689-7.608
			c-2.26,3.559-3.45,7.781-3.053,12.059c1.115,11.993,12.034,18.994,23.254,18.994c7.205,0,13.638-4.013,17.023-10.194
			c0.128-0.233,1.087,4.42,0.667,4.505c-9.535,1.928-16.882,11.423-15.973,21.197c0.951,10.23,9.027,16.759,18.345,18.468
			C600.13,324.25,594.422,294.415,591.353,284.212z M524.07,264.353c-6.335,0-12.5-3.895-13.129-10.667
			c-0.574-6.174,4.693-12.154,10.994-12.154c6.335,0,12.5,3.895,13.13,10.667C535.639,258.373,530.371,264.353,524.07,264.353z
			 M546.697,259.362c-9.865,0-11.604-14.84-1.389-14.84C555.174,244.522,556.913,259.362,546.697,259.362z M564.996,276.561
			c-5.896,0-11.633-3.624-12.219-9.926c-0.534-5.746,4.368-11.311,10.232-11.311c5.896,0,11.633,3.624,12.219,9.926
			C575.763,270.996,570.86,276.561,564.996,276.561z"/>
		<path fill="#050500" d="M410.045,107.213c-16.044-3.546-34.006-7.051-51.551-7.108c-1.352,1.844-2.486,3.846-3.359,5.953
			c-0.81-0.199-1.628-0.374-2.454-0.516c0.743-1.764,1.233-3.632,1.421-5.544c-11.101-0.711-57.601-0.711-110.638,23.518
			c-0.114,1.394-0.11,2.803,0.021,4.217c0.289,3.108,1.077,5.955,2.248,8.541c-1.406-0.165-2.825-0.249-4.249-0.249
			c-1.895,0-3.748,0.236-5.539,0.667c0.329-1.628,0.437-3.306,0.28-4.994c-0.13-1.405-0.403-2.737-0.801-3.991
			c-0.156-0.491-11.906,7.476-18.134,10.277c-11.257,5.062-42.79,30.352-64.334,58.101c9.04,1.809,20.017,4.666,31.797-8.89
			c0,23.788,20.983,20.875,22.601,20.875c12.077,0,22.426-9.978,24.072-21.529c4.614,2.177,9.829,3.323,15.096,3.323
			c8.141,0,15.544-4.236,20.359-10.457c1.435,0.195,2.887,0.3,4.345,0.3c13.122,0,24.093-12.454,22.898-25.312
			c-0.26-2.797-0.98-5.354-2.06-7.664c2.993-2.633,5.447-5.887,7.114-9.5c2.896,1.07,6.026,1.644,9.188,1.644
			c4.588,0,8.86-1.82,12.212-4.718c1.721,15.703,16.131,24.726,30.943,24.726c10.404,0,19.609-6.91,23.742-16.05
			c3.168,0.867,6.489,1.314,9.83,1.314c15.297,0,28.086-14.519,26.693-29.508C411.541,111.976,410.941,109.497,410.045,107.213z"/>
		<path fill="#050500" d="M432.392,586.066c-17.62-7.057-29.001-15.867-33.389-22.624c-20.224-31.145-14.739-62.707,9.913-86.526
			c1.168-1.129-36.916,20.834-89.57,9.591c-47.141,27.312-112.38,43.263-163.463,21.009C175.75,530.5,197,551.25,217.131,561.771
			c24.468,4.587,50.27,6.357,75.872,4.171c49.419-4.22,76.608,12.237,86.261,32.329C408.5,594,405.222,593.598,432.392,586.066z"/>
	</g>
	<path fill="none" stroke="#000000" stroke-miterlimit="10" d="M489.945,349.96c0,25.924-7.05,50.201-19.337,71.02
		c-23.204,39.312-65.084,66.288-113.434,68.722c-2.368,0.119-4.753,0.18-7.151,0.18c-77.277,0-139.923-62.646-139.923-139.921
		c0-77.277,62.646-139.922,139.923-139.922S489.945,272.683,489.945,349.96z"/>
</g>
<g id="level1-disk2">
	<circle fill="none" stroke="#000000" stroke-miterlimit="10" cx="350" cy="350" r="350"/>
	<path opacity="0.3" fill="#050500" d="M563.613,229.752c0.141,0.023,0.279,0.057,0.419,0.084c-0.033-0.215-0.069-0.428-0.094-0.646
		C563.832,229.378,563.729,229.568,563.613,229.752z"/>
	<path opacity="0.3" fill="#050500" d="M573.668,577.999c-0.446,0.047-0.874,0.101-1.291,0.159
		c-3.079-2.642-7.271-4.074-11.535-4.074c-3.481,0-6.704,1.477-9.151,3.784c-0.934-0.254-2.004-0.401-3.273-0.368
		c-6.322,0.166-7.459,4.017-8.086,7.123c-0.904-0.494-1.98-0.787-3.218-0.787c-2.606,0-4.232,1.215-4.986,2.863
		c-0.039-0.031-0.081-0.058-0.119-0.091c-5.301-4.625-11.808-6.032-16.021-2.084c-3.195-2.554-7.421-3.934-11.715-3.934
		c-5.276,0-9.986,3.215-12.5,7.644c-2.335-1.25-5.047-1.916-7.792-1.916c-5.453,0-10.194,4.034-11.732,9.058
		c-15.672-2.104-29.096-5.818-40.097-10.218c-10.483,4.009-34.733,10.759-53.239,12.149c6.861,14.261,4.891,30.357-4.245,42.192
		c-5.782,7.491-12.555,17.005-21.546,26.347c-2.07-0.872-4.358-1.333-6.67-1.333c-7.17,0-13.166,6.806-12.514,13.833
		c0.036,0.381,0.099,0.748,0.164,1.113c-0.396-0.044-0.793-0.073-1.193-0.073c-0.718,0-1.414,0.114-2.078,0.315
		c-0.986-2.913-3.602-5.409-7.588-5.409c-2.33,0-4.014,0.801-5.111,2.019c-2.637-1.414-5.702-2.163-8.807-2.163
		c-7.925,0-26.47,16.955-19.895,21.15c2.449,1.562,27.738,3.201,27.738,3.201c6.255,0.706,16.211,1.265,25,1.5
		c1.34,0.372,10.36,0.3,11.333,0c132.666,1.503,226.847-85.062,238.252-96.906C603.146,591.261,585.142,577.54,573.668,577.999z
		 M393.494,678.841c-4.908,0-9.686-3.018-10.174-8.265c-0.444-4.783,3.638-9.417,8.52-9.417c4.908,0,9.686,3.018,10.174,8.265
		C402.458,674.207,398.376,678.841,393.494,678.841z M517.44,642.264c-3.243,0-6.418-1.415-8.165-3.973
		c-0.699,0.943-1.512,1.804-2.438,2.523c1.309,1.465,2.189,3.324,2.395,5.534c0.502,5.407-4.111,10.645-9.629,10.645
		c-3.575,0-7.08-1.423-9.275-4.017c-1.664,1.986-4.107,3.322-6.79,3.322c-4.287,0-8.47-2.194-10.062-6.096
		c-0.657,0.536-1.354,1.022-2.094,1.436c2.45,1.363,4.267,3.678,4.556,6.79c0.441,4.744-3.606,9.34-8.449,9.34
		c-2.319,0-4.603-0.687-6.417-1.96c-1.68,3.026-4.877,5.233-8.464,5.233c-0.989,0-1.972-0.113-2.926-0.324
		c1.694,3.312,0.454,7.898-4.488,7.898c-7.3,0-8.716-10.73-1.55-11.209c-1.414-1.501-2.375-3.432-2.591-5.753
		c-0.505-5.434,4.131-10.696,9.676-10.696c3.071,0,6.094,1.046,8.285,2.978c0.315-0.44,0.661-0.86,1.048-1.239
		c-3.291-0.874-6.271-2.622-8.393-5.134c-1.773,2.657-4.749,4.527-8.057,4.527c-1.211,0-2.41-0.17-3.559-0.482
		c2.65,3.324,1.721,9.083-3.854,9.083c-1.717,0-3.109-0.59-4.15-1.496c-1.396,5.382-6.397,9.79-12.167,9.79
		c-7.209,0-14.226-4.432-14.942-12.138c-0.604-6.503,4.489-12.805,10.936-13.709c-3.806-1.618-6.749-4.853-7.172-9.4
		c-0.569-6.123,4.656-12.055,10.904-12.055c6.284,0,12.398,3.863,13.023,10.58c0.513,5.512-3.674,10.853-9.072,11.868
		c3.297,1.247,6.09,3.521,7.624,6.681c0.868-0.91,2.171-1.502,3.952-1.502c0.147,0,0.288,0.012,0.432,0.021
		c-1.943-1.599-3.303-3.849-3.565-6.673c-0.323-3.479,1.456-6.882,4.228-8.897c-0.639-1.196-1.07-2.541-1.21-4.041
		c-0.554-5.963,4.532-11.737,10.617-11.737c5.202,0,10.272,2.727,12.052,7.561c1.459-0.565,3.018-0.894,4.637-0.894
		c7.969,0,15.723,4.898,16.515,13.416c0.006,0.064,0.005,0.128,0.01,0.192c0.929-0.353,1.921-0.556,2.948-0.556
		c3.136,0,6.213,1.177,8.267,3.332c0.164-0.22,0.346-0.426,0.527-0.633c-2.684-1.965-4.586-4.876-4.932-8.599
		c-0.619-6.657,5.062-13.106,11.856-13.106c5.93,0,11.716,3.168,13.585,8.779c1.348-1.071,3.011-1.738,4.793-1.738
		c4.588,0,9.054,2.82,9.51,7.725C525.818,637.933,522.004,642.264,517.44,642.264z"/>
	<path opacity="0.3" fill="#050500" d="M672.548,213.884c-9.54-0.048-19.274,9.807-21.816,18.719
		c-1.646-0.297-3.326-0.457-5.016-0.457c-9.166,0-17.129,6.925-19.471,15.44c-3.796-1.64-8.013-2.503-12.27-2.503
		c-1.651,0-3.268,0.203-4.83,0.579c1.163-3.062,1.686-6.364,1.376-9.696c-0.059-0.629-0.148-1.242-0.252-1.848
		c12.573-3.16,22.077-15.866,20.862-28.936c-1.538-16.542-16.598-26.056-32.073-26.056c-3.284,0-13.452,7.179-16.392,8.372
		c-5.785-5.166-6.818-14.464-14.977-14.464c-1.938,0-3.832,0.25-5.659,0.707c-4.247-6.466-12.178-10.035-20.263-10.035
		c-6.189,0-11.815,3.246-15.441,8.001c12.105,12.92,27.995,33.122,32.69,39.43c1.274-5.623,6.438-10.297,12.418-10.297
		c7.306,0,14.415,4.492,15.142,12.301c0.051,0.549,0.049,1.094,0.022,1.637c5.334,1.859,9.593,6.113,10.167,12.289
		c0.37,3.984-1.211,7.896-3.902,10.758c3.553,0.959,6.498,3.615,6.869,7.615c0.432,4.641-3.528,9.135-8.264,9.135
		c-4.762,0-9.396-2.928-9.869-8.018c-0.14-1.496,0.184-2.977,0.837-4.297c-1.552-0.045-3.085-0.285-4.558-0.691
		c0.069,1.209-0.063,2.407-0.368,3.558c2.627,5.955,4.855,11.362,6.558,15.757c2.527-3.639,6.675-6.169,11.261-6.169
		c7.931,0,15.648,4.875,16.437,13.352c0.719,7.729-5.876,15.215-13.763,15.215c-2.46,0-4.898-0.47-7.116-1.371
		c2.838,11.031,4.929,21.122,6.064,26.996c0.31,1.795,0.841,3.467,1.566,5.006c-0.306,0.039-0.609,0.087-0.91,0.145
		c2.416,9.566,2.416,30.816,2.368,39.79c1.506,0.256,3.042,0.387,4.584,0.387c8.685,0,16.261-6.407,18.728-14.402
		c4.218,6.2,11.899,9.631,19.747,9.631c11.023,0,20.24-10.463,19.236-21.266c-1.099-11.817-11.834-18.624-22.888-18.658
		c0.283-1.591-1.432-4.86,0.215-4.861c13.402-0.013,11.746-6.126,12.895-12.923c0.223,0.075,4.276,5.531,18.585,5.531
		c10.674,0,19.751-3.474,23.075-11.093C693.5,278.125,677.875,220.75,672.548,213.884z"/>
	<path opacity="0.3" fill="#050500" d="M409.635,106.109c-4.691-11.727-17.229-18.312-30.061-18.312
		c-8.61,0-16.417,4.604-21.354,11.3C376.676,99.525,392.731,102.257,409.635,106.109z"/>
	<path opacity="0.3" fill="#050500" d="M353.776,95.698c-1.073-11.545-11.344-18.292-22.123-18.633
		c5.757-4.921,9.312-12.459,8.597-20.143c-0.773-8.321-5.491-14.588-11.934-18.394c1.192-3.462,1.707-7.155,1.36-10.879
		c-1.565-16.848-11.202-26.109-19.182-25.445c-17.579,1.463-28.605,4.418-28.605,4.418l-22.187,5.136l-19.112,5.681
		c0,0,1.279,9.978,1.377,10.528c-0.173-0.002-0.346-0.01-0.519-0.01c-16.037,0-29.444,15.22-27.983,30.934
		c0.889,9.565,6.121,16.87,13.354,21.481c-3.401,1.861-6.262,4.706-8.191,8.072c-3.157-11.948-15.047-18.724-27.234-18.724
		c-13.406,0-24.614,12.723-23.393,25.859c1.339,14.408,14.458,22.694,27.936,22.694c2.181,0,4.299-0.345,6.319-0.966
		c-2.32,1.979-4.185,4.496-5.387,7.29c-5.187-3.108-11.405-4.759-17.698-4.759c-2.168,0-4.281,0.31-6.308,0.873
		c-4.246-11.457-16.304-17.902-28.648-17.902c-14.46,0-26.55,13.724-25.233,27.894c0.154,1.654,0.452,3.234,0.878,4.736
		c0.441,1.551,1.022,3.018,1.723,4.401C102.666,142,120.667,160,120.667,160c-14.001,18.5-39,28-71,118
		c-21.139,59.453-22.855,144.152,35.144,216.823c22.2,27.815,73.578,55.186,132.63,66.126
		c-24.065-15.574-48.94-36.449-61.264-54.104c-9.795-4.197-19.077-9.789-27.62-16.964C51.032,424.773,69.617,245.131,139.667,196
		c3.674-2.576,8.147-1.828,13.223-0.806c14.444-19.861,42.129-48.527,82.22-68.321c-2.777-8.944-11.89-14.001-21.232-14.001
		c-1.406,0-2.779,0.183-4.104,0.515c3.05-2.365,5.558-5.442,7.251-8.907c3.15,9.26,12.737,14.482,22.558,14.482
		c1.447,0,2.862-0.178,4.23-0.508c-0.358,1.429-0.587,2.892-0.693,4.37c1.206-0.762,2.434-1.5,3.704-2.189
		c26.416-10.619,64.846-21.676,106.93-21.454C353.873,98.032,353.885,96.867,353.776,95.698z M259.34,99.823
		c0.048-0.88,0.041-1.767-0.042-2.657c-0.456-4.902-2.531-8.963-5.589-12.063c2.177-0.6,4.258-1.48,6.212-2.585
		c1.354,6.151,4.606,11.21,8.993,15.054C265.546,97.667,262.313,98.468,259.34,99.823z M274.28,51.422
		c-0.645-2.885-1.7-5.535-3.103-7.926c0.684-0.277,1.344-0.607,1.991-0.96c1.494,2.588,3.412,4.852,5.615,6.815
		C277.22,49.903,275.717,50.604,274.28,51.422z"/>
	<path fill="none" stroke="#000000" stroke-miterlimit="10" d="M600.024,348.957c0,1.634-0.016,3.264-0.047,4.89
		c-2.057,107.18-71.56,197.844-167.829,231.312c-16.987,5.906-34.809,10.031-53.24,12.151c-9.477,1.09-19.115,1.65-28.884,1.65
		c-48.701,0-94.15-13.925-132.582-38.011c-23.275-14.588-43.976-32.901-61.267-54.105c-35.104-43.047-56.153-98.009-56.154-157.887
		c0-57.982,19.74-111.355,52.866-153.764c22.087-28.276,50.126-51.679,82.231-68.323c2.635-1.366,5.298-2.687,7.987-3.961
		c32.416-15.36,68.664-23.951,106.918-23.951c1.25,0,6.71,0.084,8.188,0.131c17.666,0.568,34.869,2.97,51.426,7.02
		c44.868,10.977,84.985,34.064,116.69,65.601c0.082,0.082,0.164,0.164,0.246,0.246c0.203,0.202,0.405,0.404,0.606,0.607
		c11.666,11.715,22.179,24.582,31.35,38.413c0.074,0.112,0.148,0.225,0.223,0.337c7.085,10.722,13.366,22.021,18.757,33.813
		c2.359,5.162,4.549,10.417,6.561,15.76c2.578,6.848,4.864,13.839,6.844,20.958c2.457,8.838,4.44,17.872,5.922,27.075
		c0.274,1.706,0.479,3.098,0.771,5.136C599.2,325.461,600.024,337.113,600.024,348.957z"/>
</g>
<g id="level0-disk0">
	<circle fill="none" stroke="#000000" stroke-miterlimit="10" cx="374.66" cy="570.39" r="72.965"/>
	<path opacity="0.4" fill="#0C0707" stroke="#000000" stroke-miterlimit="10" d="M387.67,642.2
		c-20.089-32.856-41.45-77.126-67.773-120.019c11.981-14.193,35.603-26.682,60.14-24.559c-0.837,2.706-1.472,5.169-1.869,7.377
		c-7.532,41.846,10.779,85.665,43.09,119.004c0.464,0.479,0.895,0.958,1.293,1.438C408.5,637.125,399.5,639.5,387.67,642.2z"/>
	<path d="M400.672,511.124c-0.722-4.602-6.275-7.103-10.438-7.103c-3.819,0-8.976,2.154-8.24,6.851
		c0.722,4.602,6.275,7.103,10.438,7.103C396.251,517.975,401.407,515.82,400.672,511.124z"/>
	<path d="M400.672,531.793c-0.722-4.602-6.275-7.103-10.438-7.103c-3.819,0-8.976,2.154-8.24,6.851
		c0.722,4.602,6.275,7.103,10.438,7.103C396.251,538.644,401.407,536.489,400.672,531.793z"/>
	<path d="M405.006,553.792c-0.722-4.602-6.275-7.103-10.438-7.103c-3.819,0-8.976,2.154-8.24,6.851
		c0.722,4.602,6.275,7.103,10.438,7.103C400.585,560.643,405.741,558.488,405.006,553.792z"/>
	<path d="M412.339,573.492c-0.722-4.602-6.275-7.103-10.438-7.103c-3.819,0-8.976,2.154-8.24,6.851
		c0.722,4.602,6.275,7.103,10.438,7.103C407.918,580.343,413.074,578.188,412.339,573.492z"/>
	<path d="M421.748,592.459c-0.722-4.602-6.275-7.103-10.438-7.103c-3.819,0-8.976,2.154-8.24,6.851
		c0.722,4.602,6.275,7.103,10.438,7.103C417.327,599.31,422.483,597.155,421.748,592.459z"/>
	<path d="M431.89,608.648c-0.722-4.602-6.275-7.103-10.438-7.103c-3.819,0-8.976,2.154-8.24,6.851
		c0.722,4.602,6.275,7.103,10.438,7.103C427.469,615.499,432.625,613.345,431.89,608.648z"/>
</g>
<g id="level0-disk1">
	<circle fill="none" stroke="#000000" stroke-miterlimit="10" cx="219.369" cy="322.276" r="96"/>
	<path opacity="0.4" fill="#0C0707" stroke="#000000" stroke-miterlimit="10" d="M253.077,412.18
		c-4.526-20.886-5.506-42.562-22.243-55.18c-19.894-14.997-63.183-31.996-107.294-40.389c1.96-19.111,7.625-33.594,14.717-45.708
		c37.471,3.923,66.488,15.451,100.517,3.856c18.459-6.618,31.342-16.101,41.581-26.625
		C333.333,290.666,327.167,383.333,253.077,412.18z"/>
	<path d="M134.429,342.466c4.584-0.82,6.965-6.428,6.875-10.588c-0.083-3.818-2.348-8.928-7.027-8.09
		c-4.584,0.82-6.965,6.428-6.875,10.589C127.485,338.195,129.75,343.304,134.429,342.466z"/>
	<path d="M171.429,352.362c4.584-0.82,6.965-6.428,6.875-10.588c-0.083-3.818-2.348-8.928-7.027-8.09
		c-4.584,0.82-6.965,6.428-6.875,10.588C164.485,348.091,166.75,353.2,171.429,352.362z"/>
	<path d="M189.54,361.757c4.642-0.381,7.545-5.736,7.852-9.886c0.281-3.809-1.488-9.111-6.226-8.722
		c-4.642,0.38-7.545,5.736-7.852,9.886C183.034,356.844,184.803,362.146,189.54,361.757z"/>
	<path d="M205.449,370.803c4.638,0.424,8.421-4.352,9.437-8.386c0.934-3.704,0.104-9.231-4.63-9.664
		c-4.638-0.425-8.421,4.351-9.437,8.386C199.887,364.842,200.716,370.369,205.449,370.803z"/>
	<path d="M218.729,379.028c4.405,1.511,9.211-2.233,11.154-5.913c1.783-3.377,2.286-8.943-2.21-10.485
		c-4.405-1.511-9.211,2.233-11.154,5.913C214.736,371.92,214.233,377.486,218.729,379.028z"/>
	<path d="M233.559,392.794c4.643,0.368,8.367-4.453,9.335-8.5c0.888-3.715-0.009-9.231-4.748-9.607
		c-4.643-0.368-8.367,4.454-9.334,8.501C227.925,386.901,228.821,392.419,233.559,392.794z"/>
	<path d="M152.929,347.103c4.584-0.82,6.965-6.428,6.875-10.588c-0.083-3.818-2.348-8.928-7.027-8.09
		c-4.584,0.82-6.965,6.428-6.875,10.588C145.985,342.831,148.25,347.94,152.929,347.103z"/>
</g>
<g id="level0-disk2">
	<circle fill="none" stroke="#000000" stroke-miterlimit="10" cx="439.437" cy="161.5" r="64.776"/>
	<path opacity="0.4" fill="#0C0707" stroke="#000000" stroke-miterlimit="10" d="M374.671,160.378
		c15.832-9.015,33.854-18.296,52.83-26.877c17.749-8.026,34.373-15.823,52.93-22.156c14.507,12.281,21.069,26.218,23.23,41.675
		c-40.816,10.138-59.169,30.661-66.161,44.647c-5.447,10.896-8.193,19.899-9.263,27.644C394,218,375.168,191.833,374.671,160.378z"
		/>
	<path d="M455.339,213.126c-0.722-4.602-6.275-7.103-10.438-7.103c-3.819,0-8.976,2.155-8.24,6.851
		c0.722,4.602,6.275,7.103,10.438,7.103C450.918,219.977,456.074,217.822,455.339,213.126z"/>
	<path d="M466.244,195.551c-0.011-4.658-5.117-7.978-9.23-8.613c-3.774-0.583-9.199,0.759-9.189,5.512
		c0.011,4.658,5.117,7.978,9.23,8.613C460.829,201.646,466.254,200.304,466.244,195.551z"/>
	<path d="M481.061,180.267c0.354-4.645-4.478-8.354-8.528-9.309c-3.717-0.877-9.23,0.036-9.593,4.775
		c-0.354,4.645,4.478,8.354,8.528,9.309C475.185,185.919,480.697,185.006,481.061,180.267z"/>
	<path d="M500.94,170.68c0.578-4.622-4.067-8.561-8.067-9.711c-3.671-1.056-9.222-0.411-9.813,4.305
		c-0.578,4.622,4.067,8.561,8.067,9.711C494.798,176.041,500.349,175.396,500.94,170.68z"/>
</g>
<g id="level0">
	<circle fill="none" stroke="#000000" stroke-miterlimit="10" cx="374.66" cy="570.39" r="72.965"/>
	<circle fill="none" stroke="#000000" stroke-miterlimit="10" cx="219.369" cy="322.276" r="96"/>
	<circle fill="none" stroke="#000000" stroke-miterlimit="10" cx="439.437" cy="161.5" r="64.776"/>
	<path opacity="0.4" fill="#0C0707" stroke="#000000" stroke-miterlimit="10" d="M592.413,97.046
		c-49.641-1.854-83.145,4.455-111.983,14.298c15.633,14.156,20.008,22.906,23.231,41.675c31.169-7.741,75.438-9.426,137.753,2.482
		C629.4,140.782,597.419,101.265,592.413,97.046z M523.969,141.112c-1.356,4.555-6.938,4.28-10.386,2.636
		c-3.758-1.791-7.693-6.439-6.364-10.903c1.356-4.555,6.939-4.28,10.386-2.636C521.362,132,525.298,136.647,523.969,141.112z
		 M544.224,141.221c-2.527,4.025-7.832,2.267-10.713-0.239c-3.141-2.732-5.69-8.264-3.215-12.21
		c2.527-4.025,7.832-2.267,10.713,0.24C544.15,131.743,546.699,137.275,544.224,141.221z M568.723,140.141
		c-1.915,4.35-7.419,3.382-10.635,1.322c-3.504-2.245-6.831-7.348-4.957-11.611c1.915-4.351,7.419-3.383,10.635-1.323
		C567.27,130.774,570.597,135.877,568.723,140.141z M590.824,141.954c-2.958,3.721-8.035,1.386-10.621-1.425
		c-2.818-3.063-4.739-8.843-1.842-12.49c2.958-3.721,8.035-1.386,10.621,1.425C591.801,132.526,593.722,138.307,590.824,141.954z
		 M602.389,142.435c-2.301-3.468-3.288-9.478,0.148-12.624c3.507-3.209,8.152-0.104,10.264,3.08
		c2.301,3.468,3.287,9.478-0.149,12.624C609.146,148.723,604.5,145.618,602.389,142.435z"/>
	<path opacity="0.4" fill="#0C0707" stroke="#000000" stroke-miterlimit="10" d="M410.189,405.643
		c-4.162,0-9.716-2.501-10.438-7.103c-0.735-4.696,4.421-6.851,8.24-6.851c4.162,0,9.716,2.501,10.438,7.103
		c0.03,0.19,0.035,0.371,0.046,0.554c12.021-36.83,21.163-79.866,17.691-125.679c-1.163-15.34-10.865-27.102-7.93-48.358
		C402,220,374.66,201.5,374.183,160.655c-20.481,11.686-37.255,22.903-47.62,31.537c-18.088,15.067-27.94,37.165-46.208,55.943
		C344.995,303,312,393,253.079,412.189c1.818,8.388,4.208,16.648,8.422,24.144c12.712,22.611,15.806,22.919,37.872,54.433
		c7.181,10.256,14.001,20.79,20.519,31.408c15.441-20.508,38.441-24.748,60.146-24.551c6.187-20.018,23.409-53.321,37.296-94.819
		C415.704,404.728,412.67,405.643,410.189,405.643z M421.224,356.977c-4.162,0-9.716-2.501-10.438-7.103
		c-0.735-4.696,4.421-6.851,8.24-6.851c4.162,0,9.716,2.501,10.438,7.103C430.199,354.822,425.043,356.977,421.224,356.977z
		 M423.599,335.31c-4.162,0-9.716-2.501-10.438-7.103c-0.735-4.696,4.421-6.851,8.24-6.851c4.162,0,9.716,2.501,10.438,7.103
		C432.574,333.155,427.418,335.31,423.599,335.31z M426.599,312.714c-4.162,0-9.716-2.501-10.438-7.103
		c-0.735-4.696,4.421-6.851,8.24-6.851c4.162,0,9.716,2.501,10.438,7.103C435.574,310.559,430.418,312.714,426.599,312.714z
		 M434.657,282.819c0.735,4.696-4.421,6.851-8.24,6.851c-4.162,0-9.716-2.501-10.438-7.103c-0.735-4.696,4.421-6.851,8.24-6.851
		C428.382,275.716,433.936,278.217,434.657,282.819z M431.248,260.16c0.735,4.696-4.421,6.851-8.24,6.851
		c-4.162,0-9.716-2.501-10.438-7.103c-0.735-4.696,4.421-6.851,8.24-6.851C424.973,253.058,430.526,255.559,431.248,260.16z
		 M414.992,232.07c4.162,0,9.716,2.501,10.438,7.103c0.735,4.696-4.421,6.851-8.24,6.851c-4.162,0-9.716-2.501-10.438-7.103
		C406.017,234.225,411.173,232.07,414.992,232.07z M414.811,367.69c4.162,0,9.716,2.501,10.438,7.103
		c0.735,4.696-4.421,6.851-8.24,6.851c-4.162,0-9.716-2.501-10.438-7.103C405.835,369.845,410.991,367.69,414.811,367.69z
		 M371.599,495.977c-4.162,0-9.716-2.501-10.438-7.103c-0.735-4.696,4.421-6.851,8.24-6.851c4.162,0,9.716,2.501,10.438,7.103
		C380.574,493.822,375.418,495.977,371.599,495.977z M381.962,474.643c-4.162,0-9.716-2.501-10.438-7.103
		c-0.735-4.696,4.421-6.851,8.24-6.851c4.162,0,9.716,2.501,10.438,7.103C390.938,472.488,385.781,474.643,381.962,474.643z
		 M391.371,453c-4.162,0-9.716-2.501-10.438-7.103c-0.735-4.696,4.421-6.851,8.24-6.851c4.162,0,9.716,2.501,10.438,7.103
		C400.347,450.846,395.19,453,391.371,453z M400.78,429c-4.162,0-9.716-2.501-10.438-7.103c-0.735-4.696,4.421-6.851,8.24-6.851
		c4.162,0,9.716,2.501,10.438,7.103C409.756,426.846,404.6,429,400.78,429z"/>
	<path opacity="0.4" fill="#0C0707" stroke="#000000" stroke-miterlimit="10" d="M3.242,303.11
		c-1.192,7.106-2.075,21.182-2.129,37.032c17.338-31.359,70.453-33.419,122.427-23.531c1.46-17.361,7.46-35.278,14.72-45.708
		C103.855,267.301,62.324,270.108,3.242,303.11z M20.298,315.541c-0.316,0.724-0.632,1.45-0.949,2.175
		c-0.991,1.75-2.555,3.35-4.567,3.859c-1.892,0.479-3.789-0.191-5.124-1.564c-0.073-0.074-0.132-0.154-0.202-0.232
		c-0.296-0.225-0.591-0.447-0.887-0.672c-1.543-1.586-2.291-3.837-2.462-6.002c-0.195-2.463,0.313-5.034,1.537-7.19
		c0.693-1.265,1.638-2.298,2.834-3.101c0.577-0.253,1.156-0.507,1.733-0.76c1.695-0.131,2.588-0.323,4.192,0.532
		c1.433,0.763,2.187,1.706,3.041,3.048c0.936,1.468,1.206,3.215,1.44,4.892C21.014,312.235,20.819,313.907,20.298,315.541z
		 M31.505,313.254c-4.568,1.314-7.347-3.535-7.822-7.324c-0.518-4.13,1.273-9.952,5.75-11.24c4.568-1.314,7.347,3.535,7.822,7.324
		C37.772,306.145,35.981,311.967,31.505,313.254z M51.229,308.155c-4.605,1.178-7.238-3.752-7.6-7.554
		c-0.394-4.143,1.569-9.91,6.083-11.063c4.605-1.177,7.238,3.752,7.6,7.554C57.706,301.236,55.742,307.002,51.229,308.155z
		 M70.898,305.883c-4.679,0.838-6.944-4.271-7.027-8.089c-0.09-4.162,2.291-9.768,6.875-10.589c4.679-0.837,6.945,4.271,7.027,8.089
		C77.864,299.456,75.483,305.063,70.898,305.883z M92.52,307.185c-4.679,0.838-6.944-4.271-7.027-8.089
		c-0.09-4.161,2.291-9.769,6.875-10.589c4.679-0.838,6.945,4.271,7.027,8.09C99.485,300.757,97.104,306.365,92.52,307.185z
		 M112.519,310.52c-4.679,0.838-6.944-4.271-7.027-8.089c-0.09-4.161,2.291-9.769,6.875-10.589c4.679-0.838,6.945,4.271,7.027,8.09
		C119.484,304.092,117.104,309.699,112.519,310.52z"/>
	<path opacity="0.4" fill="#0C0707" stroke="#000000" stroke-miterlimit="10" d="M421.956,625.562
		c-0.455-0.459-9.864,11.194-34.943,16.811c14.491,23.702,28.321,41.465,42.873,48.487c13.25-3,59.351-19.362,61.435-20.682
		C465.037,660.638,441.12,644.93,421.956,625.562z M413.276,643.302c-1.346-4.56,3.482-7.372,7.27-7.873
		c4.125-0.547,9.96,1.204,11.279,5.67c1.346,4.56-3.483,7.372-7.27,7.873C420.431,649.519,414.596,647.768,413.276,643.302z
		 M440.276,660.509c-3.924,1.389-9.993,0.887-12.211-3.21c-2.261-4.181,1.881-7.934,5.48-9.209c3.924-1.39,9.993-0.888,12.211,3.209
		C448.018,655.48,443.876,659.232,440.276,660.509z M457.206,671.394c-3.964,1.27-10.016,0.582-12.107-3.58
		c-2.133-4.248,2.121-7.872,5.758-9.037c3.964-1.27,10.017-0.582,12.107,3.58C465.097,666.604,460.843,670.229,457.206,671.394z"/>
</g>
</svg>
