<?xml version="1.0" encoding="utf-8"?>
<!-- Generator: Adobe Illustrator 16.0.4, SVG Export Plug-In . SVG Version: 6.00 Build 0)  -->
<!DOCTYPE svg PUBLIC "-//W3C//DTD SVG 1.1//EN" "http://www.w3.org/Graphics/SVG/1.1/DTD/svg11.dtd">
<svg version="1.1" id="layer1" xmlns="http://www.w3.org/2000/svg" xmlns:xlink="http://www.w3.org/1999/xlink" x="0px" y="0px"
	 width="700px" height="700px" viewBox="0 0 700 700" enable-background="new 0 0 700 700" xml:space="preserve">
<g id="circle">
	<circle fill="#FFFFFF" stroke="#000000" stroke-miterlimit="10" cx="350" cy="350" r="350"/>
</g>
<g id="level2-disk0">
	<circle fill="none" stroke="#000000" stroke-miterlimit="10" cx="192" cy="213" r="140"/>
	<path opacity="0.33" fill="#020000" stroke="#000000" stroke-miterlimit="10" d="M309.717,288.807
		c-12.995-1.493-26.886-2.12-41.717-1.807c-111.623,2.355-148.338,32.197-182,12c-32.395-19.437,18.074-131.801,188.333-199.231
		C333.75,140,350,229,309.717,288.807z"/>
</g>
<g id="level2-disk1">
	<circle fill="none" stroke="#000000" stroke-miterlimit="10" cx="468.5" cy="426.5" r="207.5"/>
	<path opacity="0.33" fill="#020000" stroke="#000000" stroke-miterlimit="10" d="M453.756,633.48
		c42.777-150.406,29.222-322.634-140.822-344.285C341.068,262.732,385.5,219,478,219c122.5,8.5,190.5,100.5,197.219,197.44
		C682.543,522.111,591.5,642.5,453.756,633.48z"/>
</g>
<g id="level2-disk2">
	<circle fill="none" stroke="#000000" stroke-miterlimit="10" cx="350" cy="350" r="350"/>
	<circle fill="none" stroke="#000000" stroke-miterlimit="10" cx="468.5" cy="426.5" r="207.5"/>
	<path opacity="0.33" fill="#020000" stroke="#000000" stroke-miterlimit="10" d="M434.203,689.693
		c6.938-17.835,13.188-36.353,18.553-55.213C620.5,640.5,705.5,488.5,664.574,362.09C600.731,191.402,409,181.5,312.349,289.72
		l-3.386,0.115C344.5,233.5,343.735,150.802,274.071,99.569c66.251-26.238,152.573-44.475,257.275-48.984
		C810.669,227,723,619,434.203,689.693z"/>
	<circle fill="none" stroke="#000000" stroke-miterlimit="10" cx="192" cy="213" r="140"/>
</g>
<g id="level1-disk2">
	<circle fill="none" stroke="#000000" stroke-miterlimit="10" cx="350" cy="350" r="350"/>
	<circle fill="none" stroke="#000000" stroke-miterlimit="10" cx="350" cy="348.963" r="139.922"/>
	<path fill="none" stroke="#000000" stroke-miterlimit="10" d="M600.001,348.962c0,138.073-111.93,250.003-250,250.003
		c-138.073,0-250.002-111.93-250.002-250.003c0-138.069,111.929-249.999,250.002-249.999
		C488.071,98.963,600.001,210.893,600.001,348.962z"/>
	<path opacity="0.33" fill="#070606" d="M29.547,209.043C53.542,147.898,108.5,79,196.244,35.5
		c-6.813,21.161,2.371,57.769,21.77,101.108C148.5,174.5,96,272.5,100.005,351.706C36.623,331.615-4.662,296.222,29.547,209.043z"/>
	<path opacity="0.33" fill="#070606" d="M583.617,438.158c36.768-3.039,75.357-15.398,113.812-42.027
		c0,0-12.576,172.588-191.313,268.102c-93.682,51.312-117.723,2.664-130.603-66.537C470.576,590,554.334,521.334,583.617,438.158z"
		/>
</g>
<g id="level1-disk1">
	<path opacity="0.33" fill="#070606" d="M218.024,136.595c13.443,30.032,31.791,63.296,53.119,96.893
		c-26.135,16.493-72.135,64.493-58.37,142.937c-38.453-7.595-78.782-13.967-112.761-24.738
		C100.012,242.981,159.509,173.481,218.024,136.595z"/>
	<path fill="none" stroke="#000000" stroke-miterlimit="10" d="M600.001,348.96c0,138.073-111.93,250.003-250,250.003
		c-138.072,0-250.002-111.93-250.002-250.003c0-138.069,111.93-249.999,250.002-249.999
		C488.071,98.961,600.001,210.891,600.001,348.96z"/>
	<path opacity="0.33" fill="#070606" d="M470.644,419.878c33.714,12.845,72.366,20.953,113.266,17.518
		c-28.4,82.086-113.202,151.086-208.271,160.271c-6.454-34.4-10.089-73.969-18.133-108.889
		C403.009,486.481,447.009,460.481,470.644,419.878z"/>
</g>
<g id="level1-disk0">
	<path opacity="0.33" fill="#070606" d="M270.835,232.963c23.601,37.227,50.873,74.881,79.197,109.016
		c9.785,11.792,56.207,53.549,120.576,78.002c-41.076,67.498-113.254,69.5-113.433,68.723
		c-8.747-37.934-22.704-70.372-51.144-84.725c-25.567-12.902-58.643-20.725-93.235-27.557
		C201.032,321.646,228.364,262.979,270.835,232.963z"/>
	<path fill="none" stroke="#000000" stroke-miterlimit="10" d="M489.945,348.96c0,25.924-7.05,50.201-19.337,71.02
		c-23.204,39.312-65.084,66.288-113.434,68.722c-2.368,0.119-4.753,0.18-7.151,0.18c-77.277,0-139.923-62.646-139.923-139.921
		c0-77.277,62.646-139.922,139.923-139.922S489.945,271.683,489.945,348.96z"/>
</g>
<g id="level0-disk0">
	<circle fill="none" stroke="#000000" stroke-miterlimit="10" cx="361.018" cy="342.819" r="63.5"/>
	<path opacity="0.33" fill="#0C0707" stroke="#000000" stroke-miterlimit="10" d="M424.518,342.819c0,35.07-28.43,63.5-63.5,63.5
		s-63.5-28.43-63.5-63.5H424.518z"/>
</g>
<g id="level0-disk1">
	<circle fill="none" stroke="#000000" stroke-miterlimit="10" cx="577.422" cy="344.821" r="92.922"/>
	<path opacity="0.33" fill="#0C0707" stroke="#000000" stroke-miterlimit="10" d="M670.344,343.82
		c0,51.319-41.602,92.922-92.922,92.922c-51.318,0-92.922-41.603-92.922-92.922H670.344z"/>
</g>
<g id="level0-disk2">
	<circle fill="none" stroke="#000000" stroke-miterlimit="10" cx="122.86" cy="343.82" r="108"/>
	<path opacity="0.33" fill="#0C0707" stroke="#000000" stroke-miterlimit="10" d="M230.86,343.82c0,59.646-48.354,108-108,108
		s-108-48.354-108-108H230.86z"/>
</g>
<g id="level0">
	<circle fill="none" stroke="#000000" stroke-miterlimit="10" cx="350.5" cy="350" r="350"/>
	<circle fill="none" stroke="#000000" stroke-miterlimit="10" cx="361.018" cy="342.818" r="63.5"/>
	<circle fill="none" stroke="#000000" stroke-miterlimit="10" cx="577.422" cy="344.82" r="92.922"/>
	<circle fill="none" stroke="#000000" stroke-miterlimit="10" cx="122.86" cy="343.82" r="108"/>
	<path fill="none" stroke="#000000" stroke-miterlimit="10" d="M0.5,350.825"/>
	<path opacity="0.33" fill="#0C0707" stroke="#000000" stroke-miterlimit="10" d="M700.666,343.818
		c0,204.182-156.7,356.182-350,356.182S0.5,547,0.666,342.819l14.36,0.999c0,46.461,37.685,110.503,108,108.002
		c79.308-2.82,108-69.32,108-108.002l66.657-0.999c0,35.181,29.984,64.5,63.5,64.5c34.484,0,63.334-30.319,63.334-64.5h59.871
		c-1.333,46,33.279,93.923,93.199,93.923c64.747,0,95.078-52.242,92.922-92.924H700.666z"/>
</g>
</svg>
