<?xml version="1.0" encoding="utf-8"?>
<!-- Generator: Adobe Illustrator 16.0.4, SVG Export Plug-In . SVG Version: 6.00 Build 0)  -->
<!DOCTYPE svg PUBLIC "-//W3C//DTD SVG 1.1//EN" "http://www.w3.org/Graphics/SVG/1.1/DTD/svg11.dtd">
<svg version="1.1" xmlns="http://www.w3.org/2000/svg" xmlns:xlink="http://www.w3.org/1999/xlink" x="0px" y="0px" width="700px"
	 height="700px" viewBox="0 0 700 700" enable-background="new 0 0 700 700" xml:space="preserve">
<g id="circle">
	<circle fill="#FFFFFF" stroke="#000000" stroke-miterlimit="10" cx="350" cy="350" r="350"/>
</g>
<g id="disk0">
	<circle fill="none" stroke="#000000" stroke-miterlimit="10" cx="192" cy="213" r="140"/>
	<path opacity="0.33" fill="#020000" stroke="#000000" stroke-miterlimit="10" d="M309.717,288.807
		c-12.995-1.493-26.886-2.12-41.717-1.807c-111.623,2.355-148.338,32.197-182,12c-32.395-19.437,18.074-131.801,188.333-199.231
		C333.75,140,350,229,309.717,288.807z"/>
</g>
<g id="disk1">
	<circle fill="none" stroke="#000000" stroke-miterlimit="10" cx="468.5" cy="426.5" r="207.5"/>
	<path opacity="0.33" fill="#020000" stroke="#000000" stroke-miterlimit="10" d="M453.756,633.48
		c42.777-150.406,29.222-322.634-140.822-344.285C341.068,262.732,385.5,219,478,219c122.5,8.5,190.5,100.5,197.219,197.44
		C682.543,522.111,591.5,642.5,453.756,633.48z"/>
</g>
<g id="disk2">
	<circle fill="none" stroke="#000000" stroke-miterlimit="10" cx="350" cy="350" r="350"/>
	<circle fill="none" stroke="#000000" stroke-miterlimit="10" cx="468.5" cy="426.5" r="207.5"/>
	<path opacity="0.33" fill="#020000" stroke="#000000" stroke-miterlimit="10" d="M434.203,689.693
		c6.938-17.835,13.188-36.353,18.553-55.213C620.5,640.5,705.5,488.5,664.574,362.09C600.731,191.402,409,181.5,312.349,289.72
		l-3.386,0.115C344.5,233.5,343.735,150.802,274.071,99.569c66.251-26.238,152.573-44.475,257.275-48.984
		C810.669,227,723,619,434.203,689.693z"/>
	<circle fill="none" stroke="#000000" stroke-miterlimit="10" cx="192" cy="213" r="140"/>
</g>
</svg>
