<?xml version="1.0" encoding="utf-8"?>
<svg xmlns="http://www.w3.org/2000/svg">
<symbol id="a" viewBox="0 0 1792 1792"><path d="M881.493 276.673l-315.3 854.988h631.749l-316.45-854.989zM750.31 47.678h263.516l654.763 1718.033h-241.653l-156.498-440.728H496L339.5 1765.711H94.397L750.31 47.678z"/>
</symbol>
<symbol id="b" viewBox="0 0 1792 1792"><path d="M537.426 945.244v629.446H910.26q187.568 0 277.325-77.098 90.907-78.25 90.907-238.2 0-161.102-90.907-237.05-89.757-77.098-277.325-77.098H537.426zm0-706.545v517.826h344.067q170.307 0 253.16-63.29 84.002-64.44 84.002-195.623 0-130.032-84.003-194.473-82.852-64.44-253.16-64.44H537.427zM304.979 47.679h593.774q265.818 0 409.659 110.469 143.84 110.47 143.84 314.148 0 157.65-73.646 250.858-73.646 93.209-216.336 116.223 171.458 36.823 265.817 154.197 95.51 116.224 95.51 291.134 0 230.145-156.498 355.574Q1210.6 1765.71 921.768 1765.71H304.979V47.678z"/>
</symbol>
<symbol id="c" viewBox="0 0 1792 1792"><path d="M1575.38 180.012v245.104q-117.374-109.319-250.858-163.403-132.334-54.084-281.928-54.084-294.586 0-451.084 180.664Q435.01 567.806 435.01 908.42q0 339.463 156.499 520.127 156.499 179.513 451.084 179.513 149.594 0 281.928-54.084 133.484-54.084 250.858-163.403v242.803q-121.977 82.853-258.913 124.279-135.786 41.426-287.682 41.426-390.095 0-614.487-238.2Q189.907 1321.53 189.907 908.42q0-414.261 224.391-652.462Q638.69 16.61 1028.785 16.61q154.198 0 289.983 41.426 136.936 40.275 256.612 121.977z"/>
</symbol>
<symbol id="mega" viewBox="0 0 1792 1792"><path d="M1152 896q0-106-75-181t-181-75-181 75-75 181 75 181 181 75 181-75 75-181zm512-109v222q0 12-8 23t-20 13l-185 28q-19 54-39 91 35 50 107 138 10 12 10 25t-9 23q-27 37-99 108t-94 71q-12 0-26-9l-138-108q-44 23-91 38-16 136-29 186-7 28-36 28H785q-14 0-24.5-8.5T749 1634l-28-184q-49-16-90-37l-141 107q-10 9-25 9-14 0-25-11-126-114-165-168-7-10-7-23 0-12 8-23 15-21 51-66.5t54-70.5q-27-50-41-99l-183-27q-13-2-21-12.5t-8-23.5V783q0-12 8-23t19-13l186-28q14-46 39-92-40-57-107-138-10-12-10-24 0-10 9-23 26-36 98.5-107.5T465 263q13 0 26 10l138 107q44-23 91-38 16-136 29-186 7-28 36-28h222q14 0 24.5 8.5T1043 158l28 184q49 16 90 37l142-107q9-9 24-9 13 0 25 10 129 119 165 170 7 8 7 22 0 12-8 23-15 21-51 66.5t-54 70.5q26 50 41 98l183 28q13 2 21 12.5t8 23.5z"/>
</symbol>
<symbol id="network" viewBox="0 0 1792 1792"><path d="M896 1523q-20 0-93-73.5t-73-93.5q0-32 62.5-54t103.5-22 103.5 22 62.5 54q0 20-73 93.5t-93 73.5zm270-271q-2 0-40-25t-101.5-50-128.5-25-128.5 25-101 50-40.5 25q-18 0-93.5-75t-75.5-93q0-13 10-23 78-77 196-121t233-44 233 44 196 121q10 10 10 23 0 18-75.5 93t-93.5 75zm273-272q-11 0-23-8-136-105-252-154.5T896 768q-85 0-170.5 22t-149 53T463 905t-79 53-31 22q-17 0-92-75t-75-93q0-12 10-22 132-132 320-205t380-73 380 73 320 205q10 10 10 22 0 18-75 93t-92 75zm271-271q-11 0-22-9-179-157-371.5-236.5T896 384t-420.5 79.5T104 700q-11 9-22 9-17 0-92.5-75T-86 541q0-13 10-23 187-186 445-288t527-102 527 102 445 288q10 10 10 23 0 18-75.5 93t-92.5 75z"/>
</symbol>
<symbol id="serial" viewBox="0 0 2032 1792"><path d="M2032 805q16 8 16 27t-16 27l-320 192q-8 5-16 5-9 0-16-4-16-10-16-28V896H806q37 58 83 165 16 37 24.5 55t24 49 27 47 27 34 31.5 26 33 8h96v-96q0-14 9-23t23-9h320q14 0 23 9t9 23v320q0 14-9 23t-23 9h-320q-14 0-23-9t-9-23v-96h-96q-32 0-61-10t-51-23.5-45-40.5-37-46-33.5-57-28.5-57.5-28-60.5q-23-53-37-81.5t-36-65-44.5-53.5-46.5-17H248q-22 84-91 138T0 1088q-106 0-181-75t-75-181 75-181T0 576q88 0 157 54t91 138h104q24 0 46.5-17t44.5-53.5 36-65 37-81.5q19-41 28-60.5t28.5-57.5 33.5-57 37-46 45-40.5 51-23.5 61-10h107q21-57 70-92.5t111-35.5q80 0 136 56t56 136-56 136-136 56q-62 0-111-35.5T907 384H800q-17 0-33 8t-31.5 26-27 34-27 47-24 49-24.5 55q-46 107-83 165h1114V640q0-18 16-28t32 1z"/>
</symbol>
<symbol id="sound" viewBox="0 0 1900 1792"><path d="M832 352v1088q0 26-19 45t-45 19-45-19l-333-333H128q-26 0-45-19t-19-45V704q0-26 19-45t45-19h262l333-333q19-19 45-19t45 19 19 45zm384 544q0 76-42.5 141.5T1061 1131q-10 5-25 5-26 0-45-18.5t-19-45.5q0-21 12-35.5t29-25 34-23 29-35.5 12-57-12-57-29-35.5-34-23-29-25-12-35.5q0-27 19-45.5t45-18.5q15 0 25 5 70 27 112.5 93t42.5 142zm256 0q0 153-85 282.5T1162 1367q-13 5-25 5-27 0-46-19t-19-45q0-39 39-59 56-29 76-44 74-54 115.5-135.5T1344 896t-41.5-173.5T1187 587q-20-15-76-44-39-20-39-59 0-26 19-45t45-19q13 0 26 5 140 59 225 188.5t85 282.5zm256 0q0 230-127 422.5T1263 1602q-13 5-26 5-26 0-45-19t-19-45q0-36 39-59 7-4 22.5-10.5t22.5-10.5q46-25 82-51 123-91 192-227t69-289-69-289-192-227q-36-26-82-51-7-4-22.5-10.5T1212 308q-39-23-39-59 0-26 19-45t45-19q13 0 26 5 211 91 338 283.5T1728 896z"/>
</symbol>
<symbol id="master" viewBox="0 0 1792 1792"><path d="M832 512q0-80-56-136t-136-56-136 56-56 136q0 42 19 83-41-19-83-19-80 0-136 56t-56 136 56 136 136 56 136-56 56-136q0-42-19-83 41 19 83 19 80 0 136-56t56-136zm851 704q0 17-49 66t-66 49q-9 0-28.5-16t-36.5-33-38.5-40-24.5-26l-96 96 220 220q28 28 28 68 0 42-39 81t-81 39q-40 0-68-28l-671-671q-176 131-365 131-163 0-265.5-102.5t-102.5-265.5q0-160 95-313t248-248 313-95q163 0 265.5 102.5t102.5 265.5q0 189-131 365l355 355 96-96q-3-3-26-24.5t-40-38.5-33-36.5-16-28.5q0-17 49-66t66-49q13 0 23 10 6 6 46 44.5t82 79.5 86.5 86 73 78 28.5 41z"/>
</symbol>
</svg>
